# xmcd CD database file
#
# Track frame offsets:
#	150
#	32428
#	56849
#	71863
#	114932
#	128484
#	195342
#	232047
#	249238
#
# Disc length: 3679 seconds
#
# Revision: 1
# Processed by: cddbd v1.5.2PL0 Copyright (c) Steve Scherf et al.
# Submitted via: CDex 1.70beta2
#
DISCID=710e5d09
DTITLE=Arnvid Meyer and various - Right Out Of Kansas City CD5)
DYEAR=1973
DGENRE=Jazz
TTITLE0=Good Queen Bess
TTITLE1=I Can't Get Started
TTITLE2=Mess A Stomp
TTITLE3=Stompy Jones - Limbo Rock
TTITLE4=When Lights Are Low
TTITLE5=Hi' Ya
TTITLE6=Keester Parade
TTITLE7=Fooling Myself
TTITLE8=St. James Infirmary
EXTD=YEAR: 1973
EXTT0=
EXTT1=
EXTT2=
EXTT3=
EXTT4=
EXTT5=
EXTT6=
EXTT7=
EXTT8=
PLAYORDER=
